<?xml version="1.0" encoding="UTF-8"?>
<svg width="18px" height="17px" viewBox="0 0 18 17" version="1.1" xmlns="http://www.w3.org/2000/svg" xmlns:xlink="http://www.w3.org/1999/xlink">
    <!-- Generator: Sketch 63.1 (92452) - https://sketch.com -->
    <title>形状结合备份 2</title>
    <desc>Created with Sketch.</desc>
    <g id="页面-1" stroke="none" stroke-width="1" fill="none" fill-rule="evenodd">
        <g id="画板" transform="translate(-152.000000, -72.000000)" fill="#FFFFFF" fill-rule="nonzero">
            <path d="M162.424328,72.8217546 C163.158669,73.148704 163.673249,73.7657386 163.893204,74.4778285 C164.380746,74.6548939 164.85238,74.8848524 165.300889,75.165112 C167.668426,76.6445136 168.966966,79.270582 168.816521,81.947988 C169.84073,82.6685911 170.247931,84.0367414 169.718725,85.2253559 C169.193453,86.4051358 167.919438,87.0176902 166.705426,86.7525704 L166.748906,86.7088036 C164.310936,89.263795 160.383417,89.7800104 157.3521,87.8858335 C156.784718,87.5312938 156.273932,87.1084618 155.828189,86.628743 C155.268933,86.7694734 154.659789,86.7304577 154.091662,86.4775112 C152.74139,85.8763314 152.134131,84.294367 152.735311,82.9440949 C152.972347,82.4117019 153.361858,81.9948186 153.829522,81.7219738 L153.835141,81.8971973 C153.758608,80.3781826 154.143214,78.8680261 154.966134,77.5510783 C155.87141,76.1023339 157.217069,75.0332655 158.78015,74.4705324 C158.810856,74.3730836 158.847773,74.2749983 158.890912,74.1781061 C159.492092,72.827834 161.074056,72.2205747 162.424328,72.8217546 Z M158.985892,76.547674 L158.773094,76.6526509 C157.92033,77.0983467 157.190148,77.7660713 156.66223,78.6109168 C156.122938,79.4739639 155.840846,80.4464917 155.826202,81.4371901 C155.976487,81.4727104 156.123939,81.5232796 156.268727,81.5877435 C157.618999,82.1889233 158.226258,83.7708877 157.625079,85.1211598 C157.576143,85.23107 157.52071,85.3360573 157.459432,85.4358705 C157.744021,85.7192908 158.06313,85.9717772 158.411939,86.1897373 C160.524975,87.5101088 163.233012,87.2330533 165.029681,85.5943355 C164.55297,84.8587 164.446779,83.9066783 164.828957,83.048291 C165.207181,82.1987865 165.973611,81.6433753 166.826317,81.4979575 C166.818361,79.6550799 165.878101,77.8841506 164.241051,76.8612082 C164.059033,76.7474709 163.872086,76.6450999 163.680961,76.5542322 C163.019403,77.7640105 161.528956,78.2821687 160.247263,77.7115224 C159.688658,77.4628151 159.257216,77.0462499 158.985892,76.547674 Z M166.656048,83.8617643 C166.504137,84.2029619 166.657585,84.6027055 166.998782,84.7546164 C167.33998,84.9065274 167.739723,84.7530803 167.891634,84.4118826 C168.043545,84.070685 167.890098,83.6709415 167.548901,83.5190305 C167.207703,83.3671195 166.807959,83.5205667 166.656048,83.8617643 Z M154.562402,83.7575682 C154.410491,84.0987658 154.563938,84.4985093 154.905135,84.6504203 C155.246333,84.8023313 155.646077,84.6488841 155.797988,84.3076865 C155.949899,83.9664889 155.796451,83.5667453 155.455254,83.4148344 C155.114056,83.2629234 154.714313,83.4163705 154.562402,83.7575682 Z M160.718003,74.9915793 C160.566092,75.332777 160.719539,75.7325205 161.060737,75.8844315 C161.401934,76.0363425 161.801678,75.8828953 161.953589,75.5416977 C162.1055,75.2005 161.952053,74.8007565 161.610855,74.6488455 C161.269657,74.4969346 160.869914,74.6503817 160.718003,74.9915793 Z" id="形状结合备份-2"></path>
        </g>
    </g>
</svg>